<svg fill="none" height="30" viewBox="0 0 43 30" width="43" xmlns="http://www.w3.org/2000/svg"><g clip-rule="evenodd" fill="#000" fill-rule="evenodd"><path d="m0 24.8941c0 .6342.522274 1.1484 1.16653 1.1484.64426 0 1.16653-.5142 1.16653-1.1484 0-.6343-.52227-1.1484-1.16653-1.1484-.644256 0-1.16653.5141-1.16653 1.1484z"/><path d="m3.98896 24.8941c0 .6342.52226 1.1484 1.1665 1.1484s1.1665-.5142 1.1665-1.1484-.52226-1.1484-1.1665-1.1484-1.1665.5142-1.1665 1.1484z"/><path d="m.00005862 13.0212c0 .6342.52229038 1.1484 1.16653138 1.1484.64424 0 1.16653-.5142 1.16653-1.1484s-.52229-1.1483-1.16653-1.1483c-.644241 0-1.16653138.5141-1.16653138 1.1483z"/><path d="m35.9003 5.10602c0 .63421.5222 1.14834 1.1665 1.14834.6442 0 1.1665-.51413 1.1665-1.14834 0-.63422-.5223-1.14835-1.1665-1.14835-.6443 0-1.1665.51413-1.1665 1.14835z"/><path d="m.00005862 20.9364c0 .6343.52229038 1.1484 1.16653138 1.1484.64424 0 1.16653-.5141 1.16653-1.1484 0-.6342-.52229-1.1483-1.16653-1.1483-.644241 0-1.16653138.5141-1.16653138 1.1483z"/><path d="m3.98896 20.9364c0 .6342.52226 1.1483 1.1665 1.1483s1.1665-.5141 1.1665-1.1483-.52226-1.1484-1.1665-1.1484-1.1665.5142-1.1665 1.1484z"/><path d="m7.97786 24.8941c0 .6342.52227 1.1484 1.16653 1.1484s1.16651-.5142 1.16651-1.1484c0-.6343-.52225-1.1484-1.16651-1.1484s-1.16653.5141-1.16653 1.1484z"/><path d="m0 16.9788c0 .6342.52229 1.1483 1.16653 1.1483s1.16653-.5141 1.16653-1.1483-.52229-1.1484-1.16653-1.1484-1.16653.5142-1.16653 1.1484z"/><path d="m3.98896 16.9788c0 .6342.52226 1.1483 1.1665 1.1483s1.1665-.5141 1.1665-1.1483-.52226-1.1484-1.1665-1.1484-1.1665.5142-1.1665 1.1484z"/><path d="m3.98896 28.8517c0 .6342.52226 1.1483 1.1665 1.1483s1.1665-.5141 1.1665-1.1483c0-.6343-.52226-1.1484-1.1665-1.1484s-1.1665.5141-1.1665 1.1484z"/><path d="m3.98896 13.0212c0 .6342.52226 1.1484 1.1665 1.1484s1.1665-.5142 1.1665-1.1484-.52226-1.1483-1.1665-1.1483-1.1665.5141-1.1665 1.1483z"/><path d="m39.8892 16.9788c0 .6343.5223 1.1484 1.1665 1.1484.6443 0 1.1665-.5141 1.1665-1.1484 0-.6342-.5222-1.1483-1.1665-1.1483-.6442 0-1.1665.5141-1.1665 1.1483z"/><path d="m39.8892 9.06362c0 .63422.5223 1.14838 1.1665 1.14838.6443 0 1.1665-.51416 1.1665-1.14838 0-.63421-.5222-1.14835-1.1665-1.14835-.6442 0-1.1665.51414-1.1665 1.14835z"/><path d="m39.8892 5.10602c0 .63421.5223 1.14834 1.1665 1.14834.6443 0 1.1665-.51413 1.1665-1.14834 0-.63422-.5222-1.14835-1.1665-1.14835-.6442 0-1.1665.51413-1.1665 1.14835z"/><path d="m19.9446 20.9364c0 .6343.5223 1.1484 1.1665 1.1484.6443 0 1.1665-.5141 1.1665-1.1484 0-.6342-.5222-1.1483-1.1665-1.1483-.6442 0-1.1665.5141-1.1665 1.1483z"/><path d="m31.9114 9.06362c0 .63422.5222 1.14838 1.1665 1.14838.6442 0 1.1665-.51416 1.1665-1.14838 0-.63421-.5223-1.14835-1.1665-1.14835-.6443 0-1.1665.51414-1.1665 1.14835z"/><path d="m39.8892 13.0212c0 .6342.5223 1.1484 1.1665 1.1484.6443 0 1.1665-.5142 1.1665-1.1484s-.5222-1.1483-1.1665-1.1483c-.6442 0-1.1665.5141-1.1665 1.1483z"/><path d="m35.9003 9.06362c0 .63422.5222 1.14838 1.1665 1.14838.6442 0 1.1665-.51416 1.1665-1.14838 0-.63421-.5223-1.14835-1.1665-1.14835-.6443 0-1.1665.51414-1.1665 1.14835z"/><path d="m23.9335 1.14835c0 .63421.5223 1.14835 1.1665 1.14835.6443 0 1.1665-.51414 1.1665-1.14835 0-.634217-.5222-1.14835-1.1665-1.14835-.6442 0-1.1665.514133-1.1665 1.14835z"/><path d="m15.9557 5.10602c0 .63421.5223 1.14834 1.1665 1.14834.6443 0 1.1665-.51413 1.1665-1.14834 0-.63422-.5222-1.14835-1.1665-1.14835-.6442 0-1.1665.51413-1.1665 1.14835z"/><path d="m27.9225 5.10602c0 .63421.5222 1.14834 1.1665 1.14834.6442 0 1.1665-.51413 1.1665-1.14834 0-.63422-.5223-1.14835-1.1665-1.14835-.6443 0-1.1665.51413-1.1665 1.14835z"/><path d="m15.9557 1.14835c0 .63421.5223 1.14835 1.1665 1.14835.6443 0 1.1665-.51414 1.1665-1.14835 0-.634217-.5222-1.14835-1.1665-1.14835-.6442 0-1.1665.514133-1.1665 1.14835z"/><path d="m35.9003 16.9788c0 .6343.5222 1.1484 1.1665 1.1484.6442 0 1.1665-.5141 1.1665-1.1484 0-.6342-.5223-1.1483-1.1665-1.1483-.6443 0-1.1665.5141-1.1665 1.1483z"/><path d="m31.9114 16.9788c0 .6342.5222 1.1484 1.1665 1.1484.6442 0 1.1665-.5142 1.1665-1.1484s-.5223-1.1483-1.1665-1.1483c-.6443 0-1.1665.5141-1.1665 1.1483z"/><path d="m31.9114 5.10602c0 .63421.5222 1.14834 1.1665 1.14834.6442 0 1.1665-.51413 1.1665-1.14834 0-.63422-.5223-1.14835-1.1665-1.14835-.6443 0-1.1665.51413-1.1665 1.14835z"/><path d="m31.9114 13.0212c0 .6342.5222 1.1484 1.1665 1.1484.6442 0 1.1665-.5142 1.1665-1.1484s-.5223-1.1483-1.1665-1.1483c-.6443 0-1.1665.5141-1.1665 1.1483z"/><path d="m35.9003 13.0212c0 .6342.5222 1.1484 1.1665 1.1484.6442 0 1.1665-.5142 1.1665-1.1484s-.5223-1.1483-1.1665-1.1483c-.6443 0-1.1665.5141-1.1665 1.1483z"/><path d="m19.9446 1.14835c0 .63421.5223 1.14835 1.1665 1.14835.6443 0 1.1665-.51414 1.1665-1.14835 0-.634217-.5222-1.14835-1.1665-1.14835-.6442 0-1.1665.514133-1.1665 1.14835z"/><path d="m11.9668 13.0212c0 .6342.5223 1.1484 1.1665 1.1484.6443 0 1.1665-.5142 1.1665-1.1484s-.5222-1.1483-1.1665-1.1483c-.6442 0-1.1665.5141-1.1665 1.1483z"/><path d="m7.97786 13.0212c0 .6342.52229 1.1484 1.16653 1.1484s1.16651-.5142 1.16651-1.1484-.52227-1.1483-1.16651-1.1483-1.16653.5141-1.16653 1.1483z"/><path d="m11.9668 16.9788c0 .6343.5223 1.1484 1.1665 1.1484.6443 0 1.1665-.5141 1.1665-1.1484 0-.6342-.5222-1.1483-1.1665-1.1483-.6442 0-1.1665.5141-1.1665 1.1483z"/><path d="m7.97786 16.9788c0 .6342.52229 1.1483 1.16653 1.1483s1.16651-.5141 1.16651-1.1483-.52227-1.1484-1.16651-1.1484-1.16653.5142-1.16653 1.1484z"/><path d="m7.97786 20.9364c0 .6342.52229 1.1483 1.16653 1.1483s1.16651-.5141 1.16651-1.1483-.52227-1.1484-1.16651-1.1484-1.16653.5142-1.16653 1.1484z"/><path d="m19.9446 13.0212c0 .6342.5223 1.1484 1.1665 1.1484.6443 0 1.1665-.5142 1.1665-1.1484s-.5222-1.1483-1.1665-1.1483c-.6442 0-1.1665.5141-1.1665 1.1483z"/><path d="m19.9446 9.06362c0 .63422.5223 1.14838 1.1665 1.14838.6443 0 1.1665-.51416 1.1665-1.14838 0-.63421-.5222-1.14835-1.1665-1.14835-.6442 0-1.1665.51414-1.1665 1.14835z"/><path d="m15.9557 9.06362c0 .63422.5223 1.14838 1.1665 1.14838.6443 0 1.1665-.51416 1.1665-1.14838 0-.63421-.5222-1.14835-1.1665-1.14835-.6442 0-1.1665.51414-1.1665 1.14835z"/><path d="m15.9557 13.0212c0 .6342.5223 1.1484 1.1665 1.1484.6443 0 1.1665-.5142 1.1665-1.1484s-.5222-1.1483-1.1665-1.1483c-.6442 0-1.1665.5141-1.1665 1.1483z"/><path d="m27.9225 16.9788c0 .6343.5222 1.1484 1.1665 1.1484.6442 0 1.1665-.5141 1.1665-1.1484 0-.6342-.5223-1.1483-1.1665-1.1483-.6443 0-1.1665.5141-1.1665 1.1483z"/><path d="m19.9446 5.10602c0 .63421.5223 1.14834 1.1665 1.14834.6443 0 1.1665-.51413 1.1665-1.14834 0-.63422-.5222-1.14835-1.1665-1.14835-.6442 0-1.1665.51413-1.1665 1.14835z"/><path d="m23.9335 20.9364c0 .6343.5223 1.1484 1.1665 1.1484.6443 0 1.1665-.5141 1.1665-1.1484 0-.6342-.5222-1.1483-1.1665-1.1483-.6442 0-1.1665.5141-1.1665 1.1483z"/><path d="m15.9557 16.9788c0 .6343.5223 1.1484 1.1665 1.1484.6443 0 1.1665-.5141 1.1665-1.1484 0-.6342-.5222-1.1483-1.1665-1.1483-.6442 0-1.1665.5141-1.1665 1.1483z"/><path d="m23.9335 5.10602c0 .63421.5223 1.14834 1.1665 1.14834.6443 0 1.1665-.51413 1.1665-1.14834 0-.63422-.5222-1.14835-1.1665-1.14835-.6442 0-1.1665.51413-1.1665 1.14835z"/><path d="m11.9668 9.06362c0 .63422.5223 1.14838 1.1665 1.14838.6443 0 1.1665-.51416 1.1665-1.14838 0-.63421-.5222-1.14835-1.1665-1.14835-.6442 0-1.1665.51414-1.1665 1.14835z"/><path d="m19.9446 16.9788c0 .6343.5223 1.1484 1.1665 1.1484.6443 0 1.1665-.5141 1.1665-1.1484 0-.6342-.5222-1.1483-1.1665-1.1483-.6442 0-1.1665.5141-1.1665 1.1483z"/><path d="m27.9225 9.06362c0 .63422.5222 1.14838 1.1665 1.14838.6442 0 1.1665-.51416 1.1665-1.14838 0-.63421-.5223-1.14835-1.1665-1.14835-.6443 0-1.1665.51414-1.1665 1.14835z"/><path d="m27.9225 13.0212c0 .6342.5222 1.1484 1.1665 1.1484.6442 0 1.1665-.5142 1.1665-1.1484s-.5223-1.1483-1.1665-1.1483c-.6443 0-1.1665.5141-1.1665 1.1483z"/><path d="m23.9335 16.9788c0 .6343.5223 1.1484 1.1665 1.1484.6443 0 1.1665-.5141 1.1665-1.1484 0-.6342-.5222-1.1483-1.1665-1.1483-.6442 0-1.1665.5141-1.1665 1.1483z"/><path d="m11.9668 20.9364c0 .6343.5223 1.1484 1.1665 1.1484.6443 0 1.1665-.5141 1.1665-1.1484 0-.6342-.5222-1.1483-1.1665-1.1483-.6442 0-1.1665.5141-1.1665 1.1483z"/><path d="m23.9335 9.06362c0 .63422.5223 1.14838 1.1665 1.14838.6443 0 1.1665-.51416 1.1665-1.14838 0-.63421-.5222-1.14835-1.1665-1.14835-.6442 0-1.1665.51414-1.1665 1.14835z"/><path d="m23.9335 13.0212c0 .6342.5223 1.1484 1.1665 1.1484.6443 0 1.1665-.5142 1.1665-1.1484s-.5222-1.1483-1.1665-1.1483c-.6442 0-1.1665.5141-1.1665 1.1483z"/></g></svg>