<svg fill="none" height="25" viewBox="0 0 24 25" width="24" xmlns="http://www.w3.org/2000/svg"><g fill="#000"><path clip-rule="evenodd" d="m0 3.5c0-.59674.237053-1.16903.65901-1.59099.42196-.42196.99425-.65901 1.59099-.65901h16.5c.5967 0 1.169.23705 1.591.65901.4219.42196.659.99425.659 1.59099v18c0 .5967-.2371 1.169-.659 1.591-.422.4219-.9943.659-1.591.659h-16.5c-.59674 0-1.16903-.2371-1.59099-.659-.421957-.422-.65901-.9943-.65901-1.591zm2.25-.75c-.19891 0-.38968.07902-.53033.21967s-.21967.33142-.21967.53033v18c0 .1989.07902.3897.21967.5303.14065.1407.33142.2197.53033.2197h16.5c.1989 0 .3897-.079.5303-.2197.1407-.1406.2197-.3314.2197-.5303v-18c0-.19891-.079-.38968-.2197-.53033-.1406-.14065-.3314-.21967-.5303-.21967z" fill-rule="evenodd"/><path clip-rule="evenodd" d="m23.25 5c.1989 0 .3897.07902.5303.21967.1407.14065.2197.33142.2197.53033v15.75c0 .5967-.2371 1.169-.659 1.591-.422.4219-.9943.659-1.591.659h-4.5v-1.5h4.5c.1989 0 .3897-.079.5303-.2197.1407-.1406.2197-.3314.2197-.5303v-15.75c0-.19891.079-.38968.2197-.53033.1406-.14065.3314-.21967.5303-.21967z" fill-rule="evenodd"/><path d="m3 5h15v3h-15zm0 4.5h6v4.5h-6zm0 6h6v1.5h-6zm0 3h6v1.5h-6zm7.5-9h3v1.5h-3zm4.5 0h3v1.5h-3zm-4.5 3h3v1.5h-3zm4.5 0h3v1.5h-3zm-4.5 3h3v1.5h-3zm4.5 0h3v1.5h-3zm-4.5 3h3v1.5h-3zm4.5 0h3v1.5h-3z"/></g></svg>