<svg fill="none" height="100" viewBox="0 0 100 100" width="100" xmlns="http://www.w3.org/2000/svg"><g clip-rule="evenodd" fill="#fff" fill-rule="evenodd"><path d="m47.7394 70.9614c-.291-.2903-.5219-.6352-.6795-1.0148-.1575-.3797-.2386-.7867-.2386-1.1977 0-.4111.0811-.8181.2386-1.1977.1576-.3797.3885-.7245.6795-1.0148l16.5437-16.5375-16.5437-16.5375c-.5868-.5868-.9165-1.3827-.9165-2.2125 0-.8299.3297-1.6257.9165-2.2125s1.3826-.9165 2.2125-.9165c.8298 0 1.6257.3297 2.2125.9165l18.75 18.75c.291.2903.5219.6351.6794 1.0148.1576.3796.2387.7866.2387 1.1977 0 .411-.0811.818-.2387 1.1977-.1575.3796-.3884.7245-.6794 1.0148l-18.75 18.75c-.2903.291-.6352.5219-1.0148.6794-.3797.1576-.7867.2387-1.1977.2387-.4111 0-.8181-.0811-1.1977-.2387-.3797-.1575-.7245-.3884-1.0148-.6794z"/><path d="m28.125 50.0001c0-.8288.3292-1.6237.9153-2.2098.586-.586 1.3809-.9152 2.2097-.9152h31.25c.8288 0 1.6237.3292 2.2097.9152.5861.5861.9153 1.381.9153 2.2098s-.3292 1.6236-.9153 2.2097c-.586.586-1.3809.9153-2.2097.9153h-31.25c-.8288 0-1.6237-.3293-2.2097-.9153-.5861-.5861-.9153-1.3809-.9153-2.2097z"/></g></svg>