<svg fill="none" height="12" viewBox="0 0 20 12" width="20" xmlns="http://www.w3.org/2000/svg"><path clip-rule="evenodd" d="m.468876.968997c.069668-.069844.152432-.125259.24355-.163069.091117-.037809.188799-.057271.28745-.057271.098654 0 .196334.019462.287454.057271.09111.03781.17388.093225.24355.163069l8.469 8.470503 8.46902-8.470503c.0697-.069731.1525-.125046.2436-.162785.0911-.037738.1888-.057162.2874-.057162s.1962.019424.2874.057162c.0911.037739.1738.093054.2436.162785.0697.069733.125.152513.1628.243623.0377.09111.0571.18876.0571.28738 0 .09861-.0194.19626-.0571.28737-.0378.09111-.0931.1739-.1628.24363l-9 9c-.0697.0698-.1525.1253-.2436.1631s-.1888.0572-.28742.0572c-.09866 0-.19634-.0194-.28745-.0572-.09112-.0378-.17389-.0933-.24355-.1631l-9.000004-9c-.069845-.06967-.125259-.15243-.163069-.24355s-.057272-.1888-.057272-.28745.019462-.19634.057272-.28745c.03781-.09112.093224-.17388.163069-.243553z" fill="#000" fill-rule="evenodd"/></svg>