<svg fill="none" height="40" viewBox="0 0 40 40" width="40" xmlns="http://www.w3.org/2000/svg"><g clip-rule="evenodd" fill="#000" fill-rule="evenodd"><path d="m28.3847 20.365c.1164.1161.2088.254.2718.4059s.0955.3147.0955.4791-.0325.3272-.0955.4791c-.063.1518-.1554.2898-.2718.4059l-7.5 7.5c-.1161.1164-.254.2087-.4059.2718-.1519.063-.3147.0954-.4791.0954s-.3272-.0324-.4791-.0954c-.1518-.0631-.2898-.1554-.4059-.2718l-7.5-7.5c-.2347-.2347-.3666-.5531-.3666-.885 0-.332.1319-.6503.3666-.885s.5531-.3666.885-.3666c.332 0 .6503.1319.885.3666l6.615 6.6175 6.615-6.6175c.1161-.1164.2541-.2088.4059-.2718.1519-.063.3147-.0955.4791-.0955s.3272.0325.4791.0955.2898.1554.4059.2718z"/><path d="m20 10c.3315 0 .6495.1317.8839.3661s.3661.5524.3661.8839v16.25c0 .3315-.1317.6495-.3661.8839s-.5524.3661-.8839.3661-.6495-.1317-.8839-.3661-.3661-.5524-.3661-.8839v-16.25c0-.3315.1317-.6495.3661-.8839s.5524-.3661.8839-.3661z"/></g></svg>