<svg fill="none" height="21" viewBox="0 0 20 21" width="20" xmlns="http://www.w3.org/2000/svg"><g clip-rule="evenodd" fill="#000" fill-rule="evenodd"><path d="m16.5833 2.5h-12.49997c-.55253 0-1.08243.21949-1.47314.61019-.3907.39071-.61019.92061-.61019 1.47314v12.49997c0 .5526.21949 1.0825.61019 1.4732.39071.3907.92061.6102 1.47314.6102h12.49997c.5526 0 1.0825-.2195 1.4732-.6102s.6102-.9206.6102-1.4732v-12.49997c0-.55253-.2195-1.08243-.6102-1.47314-.3907-.3907-.9206-.61019-1.4732-.61019zm-13.54163 4.01771c0-.49271.46666-.89271 1.04166-.89271h12.49997c.575 0 1.0417.4 1.0417.89271v10.71459c0 .4927-.4667.8927-1.0417.8927h-12.49997c-.575 0-1.04166-.4-1.04166-.8927z"/><path d="m8.78796 9.83331c.27325 0 .53532-.10535.72853-.29289.19322-.18754.30177-.44189.30177-.70711 0-.26521-.10855-.51957-.30177-.7071-.19321-.18754-.45528-.2929-.72853-.2929s-.53531.10536-.72853.2929c-.19322.18753-.30177.44189-.30177.7071 0 .26522.10855.51957.30177.70711s.45528.29289.72853.29289zm3.09094 0c.2732 0 .5353-.10535.7285-.29289s.3018-.44189.3018-.70711c0-.26521-.1086-.51957-.3018-.7071-.1932-.18754-.4553-.2929-.7285-.2929-.2733 0-.5353.10536-.7286.2929-.1932.18753-.3017.44189-.3017.7071 0 .26522.1085.51957.3017.70711.1933.18754.4553.29289.7286.29289zm3.0909 0c.2732 0 .5353-.10535.7285-.29289s.3018-.44189.3018-.70711c0-.26521-.1086-.51957-.3018-.7071-.1932-.18754-.4553-.2929-.7285-.2929-.2733 0-.5353.10536-.7286.2929-.1932.18753-.3017.44189-.3017.7071 0 .26522.1085.51957.3017.70711.1933.18754.4553.29289.7286.29289zm-9.27275 2.99999c.27325 0 .53532-.1053.72854-.2929.19321-.1875.30176-.4419.30176-.7071s-.10855-.5196-.30176-.7071c-.19322-.1875-.45529-.2929-.72854-.2929s-.53531.1054-.72853.2929-.30177.4419-.30177.7071.10855.5196.30177.7071c.19322.1876.45528.2929.72853.2929zm3.09091 0c.27325 0 .53532-.1053.72853-.2929.19322-.1875.30177-.4419.30177-.7071s-.10855-.5196-.30177-.7071c-.19321-.1875-.45528-.2929-.72853-.2929s-.53531.1054-.72853.2929-.30177.4419-.30177.7071.10855.5196.30177.7071c.19322.1876.45528.2929.72853.2929zm3.09094 0c.2732 0 .5353-.1053.7285-.2929.1932-.1875.3018-.4419.3018-.7071s-.1086-.5196-.3018-.7071-.4553-.2929-.7285-.2929c-.2733 0-.5353.1054-.7286.2929-.1932.1875-.3017.4419-.3017.7071s.1085.5196.3017.7071c.1933.1876.4553.2929.7286.2929zm3.0909 0c.2732 0 .5353-.1053.7285-.2929.1932-.1875.3018-.4419.3018-.7071s-.1086-.5196-.3018-.7071-.4553-.2929-.7285-.2929c-.2733 0-.5353.1054-.7286.2929-.1932.1875-.3017.4419-.3017.7071s.1085.5196.3017.7071c.1933.1876.4553.2929.7286.2929zm-9.27275 3c.27325 0 .53532-.1053.72854-.2929.19321-.1875.30176-.4419.30176-.7071s-.10855-.5196-.30176-.7071c-.19322-.1875-.45529-.2929-.72854-.2929s-.53531.1054-.72853.2929-.30177.4419-.30177.7071.10855.5196.30177.7071c.19322.1876.45528.2929.72853.2929zm3.09091 0c.27325 0 .53532-.1053.72853-.2929.19322-.1875.30177-.4419.30177-.7071s-.10855-.5196-.30177-.7071c-.19321-.1875-.45528-.2929-.72853-.2929s-.53531.1054-.72853.2929-.30177.4419-.30177.7071.10855.5196.30177.7071c.19322.1876.45528.2929.72853.2929zm3.09094 0c.2732 0 .5353-.1053.7285-.2929.1932-.1875.3018-.4419.3018-.7071s-.1086-.5196-.3018-.7071-.4553-.2929-.7285-.2929c-.2733 0-.5353.1054-.7286.2929-.1932.1875-.3017.4419-.3017.7071s.1085.5196.3017.7071c.1933.1876.4553.2929.7286.2929z"/></g></svg>