<svg fill="none" height="16" viewBox="0 0 18 16" width="18" xmlns="http://www.w3.org/2000/svg"><path d="m14.0001 10.5h-1.6667v1.6667h1.6667zm0-3.33333h-1.6667v1.66666h1.6667zm1.6667 6.66663h-6.66672v-1.6666h1.66662v-1.6667h-1.66662v-1.66667h1.66662v-1.66666h-1.66662v-1.66667h6.66672zm-8.33338-9.99997h-1.66667v-1.66666h1.66667zm0 3.33334h-1.66667v-1.66667h1.66667zm0 3.33333h-1.66667v-1.66667h1.66667zm0 3.3333h-1.66667v-1.6666h1.66667zm-3.33334-9.99997h-1.66666v-1.66666h1.66666zm0 3.33334h-1.66666v-1.66667h1.66666zm0 3.33333h-1.66666v-1.66667h1.66666zm0 3.3333h-1.66666v-1.6666h1.66666zm5-9.99997v-3.33333h-8.333332v15h16.666652v-11.66667z" fill="#000"/></svg>