<svg fill="none" height="16" viewBox="0 0 18 16" width="18" xmlns="http://www.w3.org/2000/svg"><path d="m14.0003 10.5h-1.6666v1.6667h1.6666zm0-3.33333h-1.6666v1.66666h1.6666zm1.6667 6.66663h-6.66667v-1.6666h1.66667v-1.6667h-1.66667v-1.66667h1.66667v-1.66666h-1.66667v-1.66667h6.66667zm-8.33334-9.99997h-1.66667v-1.66666h1.66667zm0 3.33334h-1.66667v-1.66667h1.66667zm0 3.33333h-1.66667v-1.66667h1.66667zm0 3.3333h-1.66667v-1.6666h1.66667zm-3.33333-9.99997h-1.66667v-1.66666h1.66667zm0 3.33334h-1.66667v-1.66667h1.66667zm0 3.33333h-1.66667v-1.66667h1.66667zm0 3.3333h-1.66667v-1.6666h1.66667zm5-9.99997v-3.33333h-8.333338v15h16.666708v-11.66667z" fill="#fff"/></svg>