<svg fill="none" height="20" viewBox="0 0 20 20" width="20" xmlns="http://www.w3.org/2000/svg"><g fill="#000"><path d="m9.95864 3.88994v-1.63795c0-.15119-.1008-.25199-.25199-.25199-.1512 0-.252.1008-.252.25199v1.63795l-.73077 4.28388h2.04112z"/><path d="m11.2688 8.90459c0-.0504-.0252-.1008-.0756-.1512 0 0-.0251-.0252-.1007-.07559h-2.72157c-.05039.05039-.10079.07559-.10079.07559-.0504.0504-.0756.1008-.0756.1512-.30239 2.36871-.52918 3.45231-.68038 3.90591h4.40984c-.1008-.4536-.3528-1.5372-.6552-3.90591z"/><path d="m12.3526 13.3145h-5.21624c-.93237.6803-1.05837 1.6883-1.03317 2.2175h7.30781c0-.5292-.126-1.5372-1.0584-2.2175z"/><path d="m14.5701 17.1699h-.1764v-.5796c0-.0756-.0252-.1512-.1008-.2016l-.4788-.378h-8.11418l-.47879.378c-.0756.0504-.1008.126-.1008.2016v.5796h-.20159c-.15119 0-.25199.126-.25199.252v.9576c0 .1512.1008.252.25199.252h9.62616c.1512 0 .2519-.1008.2519-.252v-.9576c.0252-.1512-.1007-.252-.2267-.252z"/></g></svg>