<svg fill="none" height="40" viewBox="0 0 40 40" width="40" xmlns="http://www.w3.org/2000/svg" xmlns:xlink="http://www.w3.org/1999/xlink"><clipPath id="a"><path d="m0 0h40v40h-40z"/></clipPath><g clip-path="url(#a)" clip-rule="evenodd" fill="#fff" fill-rule="evenodd"><path d="m20 37.5c4.6413 0 9.0925-1.8437 12.3744-5.1256s5.1256-7.7331 5.1256-12.3744-1.8437-9.0925-5.1256-12.37437c-3.2819-3.28189-7.7331-5.12563-12.3744-5.12563s-9.0925 1.84374-12.37437 5.12563c-3.28189 3.28187-5.12563 7.73307-5.12563 12.37437s1.84374 9.0925 5.12563 12.3744c3.28187 3.2819 7.73307 5.1256 12.37437 5.1256zm0 2.5c5.3043 0 10.3914-2.1071 14.1421-5.8579 3.7508-3.7507 5.8579-8.8378 5.8579-14.1421s-2.1071-10.39141-5.8579-14.14214c-3.7507-3.75072-8.8378-5.85786-14.1421-5.85786s-10.39141 2.10714-14.14214 5.85786c-3.75072 3.75073-5.85786 8.83784-5.85786 14.14214s2.10714 10.3914 5.85786 14.1421c3.75073 3.7508 8.83784 5.8579 14.14214 5.8579z"/><path d="m29.6351 10.365c.1164.1161.2088.254.2718.4059.063.1518.0954.3146.0954.4791 0 .1644-.0324.3272-.0954.479-.063.1519-.1554.2898-.2718.406l-17.5 17.5c-.2347.2347-.553.3665-.885.3665-.3319 0-.6503-.1318-.885-.3665-.2347-.2348-.36656-.5531-.36656-.885 0-.332.13186-.6503.36656-.885l17.5-17.5c.1161-.1164.2541-.2088.4059-.2718.1519-.063.3147-.09547.4791-.09547s.3272.03247.4791.09547.2898.1554.4059.2718z"/><path d="m10.365 10.365c-.1164.1161-.2087.254-.2717.4059-.0631.1518-.0955.3146-.0955.4791 0 .1644.0324.3272.0955.479.063.1519.1553.2898.2717.406l17.5 17.5c.2348.2347.5531.3665.885.3665.332 0 .6503-.1318.885-.3665.2348-.2348.3666-.5531.3666-.885 0-.332-.1318-.6503-.3666-.885l-17.5-17.5c-.1161-.1164-.254-.2088-.4059-.2718-.1518-.063-.3146-.09547-.4791-.09547-.1644 0-.3272.03247-.479.09547-.1519.063-.2898.1554-.406.2718z"/></g></svg>