<svg fill="none" height="40" viewBox="0 0 125 40" width="125" xmlns="http://www.w3.org/2000/svg"><g fill="#000"><path d="m1.19342 23.6225v-4.8762h1.47102v-13.43667h-1.47102v-4.876213h20.02018v9.030013h-6.6375v-4.1538h-3.5879v4.73177h2.6192v3.3952h-2.6192v5.3097h3.5879v-4.7317h6.6375v9.6079z"/><path d="m23.7968 23.6225v-4.8762h1.471v-13.43667h-1.471v-4.876213h12.5216v4.876213h-2.7268v13.43667h2.655v-2.7451h5.8841v7.6213z"/><path d="m44.6422 23.6225v-4.8762h1.471v-13.43667h-1.471v-4.876213h20.0202v9.030013h-6.6375v-4.1538h-3.5879v4.73177h2.6192v3.3952h-2.6192v5.3097h3.5879v-4.7317h6.6375v9.6079z"/><path d="m70.1159 21.2025c-2.0092-1.9144-3.0496-4.9485-3.0496-9.1745 0-8.01867 3.8748-12.028 11.6246-12.028 1.8657 0 3.6237.21672 5.2382.686281 1.6146.469559 2.7986.975239 3.5879 1.517039v7.47686h-7.104v-2.13109c0-.75852-.1793-1.30032-.5023-1.66152-.3229-.3612-.8252-.5418-1.5069-.5418-.6816 0-1.1839.1806-1.5068.5418s-.5023.903-.5023 1.66152v8.99391c0 .7585.1794 1.3003.5023 1.6615s.8252.5418 1.5068.5418c.6817 0 1.184-.1806 1.5069-.5418.323-.3612.5023-.903.5023-1.6615v-2.4201h7.104v7.7297c-.8252.5418-2.0092 1.0475-3.5879 1.5171-1.5786.4695-3.3008.6863-5.1665.6863-3.7313 0-6.6016-.9753-8.6467-2.8535z"/><path d="m112.273 7.62136h-5.095v-2.31169h-1.901v13.43663h2.081v4.8763h-12.4501v-4.8763h2.081v-13.43663h-1.9016v2.31169h-5.0947v-7.224016h22.2804z"/><path d="m120.669 2.16718c.287 0 .538.07224.753.1806.215.14448.359.28896.467.5418.107.21672.179.50568.179.79464v.32508h-2.296c0 .39733.107.68629.287.86689.179.21672.43.28896.789.28896.215 0 .395-.03612.574-.07224s.323-.10836.502-.1806v.46956c-.179.07224-.358.14448-.502.1806-.179.03612-.359.07224-.61.07224-.323 0-.61-.07224-.861-.1806-.251-.14448-.43-.32508-.574-.57792-.143-.25284-.215-.57793-.215-.93913s.072-.68628.179-.93912c.108-.25284.287-.46956.538-.61404s.503-.21672.79-.21672zm0 .46956c-.251 0-.467.07224-.61.25284-.144.1806-.251.39732-.287.7224h1.722c0-.28896-.072-.50568-.215-.68628-.108-.1806-.323-.28896-.61-.28896z"/><path d="m120.633 8.0909c-2.225 0-4.019-1.80601-4.019-4.04545 0-2.23945 1.794-4.04545 4.019-4.04545 2.224 0 4.018 1.806 4.018 4.04545 0 2.23944-1.794 4.04545-4.018 4.04545zm0-7.476859c-1.902 0-3.409 1.553159-3.409 3.431409 0 1.87824 1.543 3.4314 3.409 3.4314 1.901 0 3.408-1.55316 3.408-3.4314 0-1.87825-1.507-3.431409-3.408-3.431409z"/><path d="m2.56957 39.8718v-.5827l-.38025-.0582c-.2535-.035-.41482-.1282-.41482-.5361v-5.5705c0-.4079.16132-.5011.41482-.5361l.38025-.0583v-.5827h-2.56957v.5827l.38025.0583c.2535.035.414818.1282.414818.5361v5.5705c0 .4079-.161318.5011-.414818.5361l-.38025.0582v.5827z"/><path d="m9.56467 32.5299.38025.0583c.36868.0583.41478.1282.41478.5361v4.9179l-3.60657-6.095h-1.7745v.5827l.36872.0699c.28807.0583.29959.1282.29959.5245v5.5705c0 .4079-.04609.4778-.41481.5361l-.38025.0582v.5827h2.51195v-.5827l-.38025-.0582c-.36873-.0583-.41482-.1282-.41482-.5361v-5.2559l3.80254 6.4329h.9103v-6.7475c0-.4079.046-.4778.4148-.5361l.3802-.0583v-.5827h-2.51193z"/><path d="m22.065 39.8718 2.2815-6.8058c.0922-.268.2305-.4079.4955-.4428l.4148-.0583v-.6177h-2.6387v.6177l.3227.0349c.2995.035.4378.1399.4378.3613 0 .0583-.0115.1632-.0461.2447l-1.9127 5.6288h-.1614l-1.7514-5.6521c-.0231-.0699-.0461-.1864-.0461-.2447 0-.1865.1498-.3263.4609-.3496l.2881-.0233v-.6177h-2.7309v.6177l.3802.0583c.2651.0466.4033.1398.4955.4195l2.2008 6.8291z"/><path d="m29.8031 40c1.544 0 3.0765-.7342 3.0765-3.03v-2.1093c0-2.2142-1.4403-3.0417-3.0765-3.0417-1.6132 0-3.042.8275-3.042 3.0417v2.1093c0 2.2958 1.521 3.03 3.042 3.03zm0-.874c-1.2214 0-2.0626-.606-2.0626-2.156v-2.1676c0-1.4217.8412-2.1093 2.0626-2.1093s2.0971.6642 2.0971 2.1093v2.1676c0 1.5733-.8757 2.156-2.0971 2.156z"/><path d="m38.8095 39.8718v-.5827l-.3802-.0582c-.2535-.035-.4148-.1282-.4148-.5361v-4.9179c0-.4196.0115-.7109.023-1.0139h1.1984c.2189 0 .3226.0932.3572.3729l.0576.4196h.6798v-1.6083h-5.6115v1.6083h.6798l.0576-.4196c.0346-.2797.1383-.3729.3572-.3729h1.1984c.0115.303.023.5943.023 1.0139v4.9179c0 .4079-.1613.5011-.4148.5361l-.3802.0582v.5827z"/><path d="m47.5681 39.8718v-1.6665h-.6684l-.0691.4895c-.0346.2447-.1498.3612-.5531.3612h-2.028c-.3341 0-.4148-.1165-.4148-.5593v-2.2259h2.6963v-.7575h-2.6963v-2.1909c0-.4429.0807-.5594.4148-.5594h1.9013c.4033 0 .5185.1165.553.3729l.0692.4778h.6683v-1.6665h-5.2659v.5827l.1959.0466c.2996.07.484.1515.484.5478v5.5705c0 .4079-.1614.4778-.4149.5361l-.265.0582v.5827z"/><path d="m56.9005 39.8718 1.4403-5.0577h.0807l1.4057 5.0577h1.4289l1.4979-7.1787.7836-.1865v-.5594h-2.5927v.5594l.8182.1865-1.1984 6.1182h-.0807l-1.6247-5.687h-.8872l-1.6132 5.687h-.0807l-1.302-6.1182.8642-.1865v-.5594h-2.6963v.5594l.772.1865 1.5555 7.1787z"/><path d="m70.5995 39.8718v-1.6665h-.6683l-.0691.4895c-.0346.2447-.1498.3612-.5531.3612h-2.028c-.3342 0-.4148-.1165-.4148-.5593v-2.2259h2.6963v-.7575h-2.6963v-2.1909c0-.4429.0806-.5594.4148-.5594h1.9013c.4033 0 .5185.1165.553.3729l.0692.4778h.6683v-1.6665h-5.2659v.5827l.1959.0466c.2996.07.484.1515.484.5478v5.5705c0 .4079-.1614.4778-.4149.5361l-.265.0582v.5827z"/><path d="m80.439 39.8718v-.5827l-.3803-.0582c-.2535-.035-.4148-.1282-.4148-.5361v-4.9179c0-.4196.0115-.7109.023-1.0139h1.1984c.2189 0 .3226.0932.3572.3729l.0576.4196h.6799v-1.6083h-5.6116v1.6083h.6798l.0577-.4196c.0345-.2797.1382-.3729.3572-.3729h1.1983c.0115.303.0231.5943.0231 1.0139v4.9179c0 .4079-.1614.5011-.4149.5361l-.3802.0582v.5827z"/><path d="m86.3629 39.8718v-.5827l-.4379-.0582c-.3341-.035-.4609-.1399-.4609-.5361v-1.9112h1.5095l1.3712 3.0882h1.5902v-.6176l-.4149-.0583c-.265-.035-.3917-.1049-.5185-.3496l-1.1292-2.2142c1.2329-.3963 1.6823-1.247 1.6823-2.2958 0-1.3985-.8527-2.3891-2.4659-2.3891h-3.2724v.6177l.4263.1282c.1729.0583.242.1398.242.4312v5.5705c0 .4079-.1383.5127-.3918.5477l-.3457.0466v.5827zm-.8988-6.7825c0-.1981.1037-.3263.3342-.3263h1.0601c1.0255 0 1.6477.5943 1.6477 1.5733 0 1.0721-.6452 1.6315-1.8897 1.6315h-1.1523z"/><path d="m95.5449 40c1.521 0 2.9498-.641 2.9498-2.9368v-3.9389c0-.4079.1613-.5011.4148-.5361l.3803-.0583v-.5827h-2.5696v.5827l.3803.0583c.2535.035.4148.1282.4148.5361v3.9156c0 1.3752-.6799 2.0861-1.9704 2.0861-1.279 0-1.9474-.7109-1.9474-2.0861v-3.9156c0-.4079.1614-.5011.4149-.5361l.3802-.0583v-.5827h-2.5695v.5827l.3802.0583c.2535.035.4148.1282.4148.5361v3.9389c0 2.2958 1.4173 2.9368 2.9268 2.9368z"/><path d="m103.905 39.9883c1.752 0 2.685-.8856 2.685-2.3307 0-1.6548-1.417-2.0045-2.616-2.3774-.898-.268-1.682-.5594-1.682-1.4217 0-.8974.795-1.1654 1.682-1.1654.415 0 1.107.1282 1.441.3496l.069 1.0022h.784s.092-.8391.092-1.6082c-.473-.268-1.233-.6177-2.42-.6177-1.417 0-2.627.5012-2.627 2.1676 0 1.3286 1.175 1.7481 2.304 2.1327 1.014.338 1.994.6643 1.994 1.6315 0 .8507-.703 1.3635-1.706 1.3635-.495 0-1.198-.1049-1.613-.3496l-.115-1.0139h-.784s-.103.5827-.103 1.6082c.461.2564 1.221.6293 2.615.6293z"/><path d="m112.472 39.8718v-.5827l-.381-.0582c-.253-.035-.414-.1282-.414-.5361v-4.9179c0-.4196.011-.7109.023-1.0139h1.198c.219 0 .323.0932.357.3729l.058.4196h.68v-1.6083h-5.612v1.6083h.68l.058-.4196c.034-.2797.138-.3729.357-.3729h1.198c.012.303.023.5943.023 1.0139v4.9179c0 .4079-.161.5011-.415.5361l-.38.0582v.5827z"/></g></svg>