<svg fill="none" height="24" viewBox="0 0 24 24" width="24" xmlns="http://www.w3.org/2000/svg"><path clip-rule="evenodd" d="m12 24c3.1826 0 6.2348-1.2643 8.4853-3.5147 2.2504-2.2505 3.5147-5.3027 3.5147-8.4853s-1.2643-6.23484-3.5147-8.48528c-2.2505-2.25044-5.3027-3.51472-8.4853-3.51472s-6.23484 1.26428-8.48528 3.51472-3.51472 5.30268-3.51472 8.48528 1.26428 6.2348 3.51472 8.4853c2.25044 2.2504 5.30268 3.5147 8.48528 3.5147zm1.395-14.118-3.435.4305-.123.57.675.1245c.441.105.528.264.432.7035l-1.107 5.202c-.291 1.3455.1575 1.9785 1.212 1.9785.8175 0 1.767-.378 2.1975-.897l.132-.624c-.3.264-.738.369-1.029.369-.4125 0-.5625-.2895-.456-.7995zm-1.395-1.632c.3978 0 .7794-.15804 1.0607-.43934s.4393-.66284.4393-1.06066-.158-.77936-.4393-1.06066-.6629-.43934-1.0607-.43934-.7794.15804-1.0607.43934-.4393.66284-.4393 1.06066.158.77936.4393 1.06066.6629.43934 1.0607.43934z" fill="#fff" fill-rule="evenodd"/></svg>