<svg fill="none" height="26" viewBox="0 0 26 26" width="26" xmlns="http://www.w3.org/2000/svg"><path d="m11.75 16.75h2.5v2.5h-2.5zm0-10h2.5v7.5h-2.5zm1.25-6.25c-6.9125 0-12.5 5.625-12.5 12.5 0 3.3152 1.31696 6.4946 3.66117 8.8388 1.16073 1.1608 2.53872 2.0815 4.05529 2.7097s3.14204.9515 4.78354.9515c3.3152 0 6.4946-1.317 8.8388-3.6612s3.6612-5.5236 3.6612-8.8388c0-1.6415-.3233-3.26697-.9515-4.78354s-1.5489-2.89456-2.7097-4.05529c-1.1607-1.16074-2.5387-2.08148-4.0553-2.70966-1.5165-.628188-3.142-.95151-4.7835-.95151zm0 22.5c-2.6522 0-5.1957-1.0536-7.07107-2.9289-1.87536-1.8754-2.92893-4.4189-2.92893-7.0711s1.05357-5.1957 2.92893-7.07107c1.87537-1.87536 4.41887-2.92893 7.07107-2.92893s5.1957 1.05357 7.0711 2.92893c1.8753 1.87537 2.9289 4.41887 2.9289 7.07107s-1.0536 5.1957-2.9289 7.0711c-1.8754 1.8753-4.4189 2.9289-7.0711 2.9289z" fill="#fff"/></svg>