<svg fill="none" height="18" viewBox="0 0 9 18" width="9" xmlns="http://www.w3.org/2000/svg"><path clip-rule="evenodd" d="m8.175 3.14996c-.525 0-.975 0-1.5 0-.675 0-1.05.375-1.125.975v1.575c0 .225.075.15.225.15h2.25c.225 0 .3.075.3.3-.075.9-.15 1.725-.225 2.625 0 .225-.075.225-.3.225-.6 0-1.2 0-1.8 0-.45 0-.375-.075-.375.375v8.25004c0 .3-.075.375-.375.375-1.05 0-2.025 0-3.075 0-.3 0-.3-.075-.3-.375 0-1.35 0-2.775 0-4.125 0-1.425 0-2.775 0-4.20004 0-.225-.075-.3-.3-.3-.45 0-.9 0-1.35 0-.1499999 0-.225-.075-.225-.225 0-.9 0-1.725 0-2.625 0-.15.0750001-.225.225-.225h1.35c.225 0 .3-.075.3-.3 0-.675 0-1.35 0-2.025 0-.825.225-1.575.75-2.25.6-.825001 1.5-1.200001 2.475-1.2750007 1.05-.07499999 2.1 0 3.075 0 .15 0 .15.0749997.15.2249997v2.625001c.075.15 0 .225-.15.225z" fill="#000" fill-rule="evenodd"/></svg>