<svg fill="none" height="40" viewBox="0 0 40 40" width="40" xmlns="http://www.w3.org/2000/svg"><g clip-rule="evenodd" fill-rule="evenodd"><path d="m40 20c0 11.0465-8.9535 20-20 20-11.04651 0-20-8.9535-20-20 0-11.04651 8.95349-20 20-20 11.0465 0 20 8.95349 20 20z" fill="#f9f9fa"/><path d="m16.871 26.0359c0-1.871-.0106-3.742.0106-5.6131 0-.3171-.0846-.4122-.4017-.4017-.5814.0212-1.1628 0-1.7548.0106-.2325.0106-.3277-.0634-.3171-.3066.0106-1.1627.0106-2.3361 0-3.4989 0-.222.0634-.296.296-.296.592.0106 1.1945-.0211 1.7865.0106.3488.0211.4122-.1057.4122-.4228-.0211-.888-.0211-1.7759 0-2.6639.0212-1.0888.3172-2.1036.962-2.98096.8139-1.12051 1.9767-1.62791 3.3192-1.69133 1.3742-.06343 2.759-.03171 4.1438-.04228.1903 0 .2537.06342.2537.2537-.0106 1.18393-.0106 2.36787 0 3.54127 0 .2114-.0634.2748-.2749.2748-.6659-.0106-1.3319-.0106-1.9873 0-.8879 0-1.4165.4545-1.4693 1.3319-.0423.6977-.0106 1.4059-.0317 2.1142-.0106.2537.148.2325.3065.2325 1.0042 0 2.019.0106 3.0233-.0105.296 0 .3911.0634.3594.3699-.1269 1.1734-.2326 2.3468-.3383 3.5307-.0211.2643-.148.3171-.3805.3171-.7928-.0105-1.5962-.0105-2.389 0-.5709 0-.518-.0845-.518.4969 0 3.668-.0106 7.3255.0106 10.9936 0 .3911-.0952.4863-.4757.4757-1.3637-.0211-2.7379-.0211-4.1015 0-.3806.0106-.444-.1268-.444-.4651 0-1.871 0-3.7104 0-5.5603z" fill="#000"/></g></svg>