<svg fill="none" height="20" viewBox="0 0 25 20" width="25" xmlns="http://www.w3.org/2000/svg"><path clip-rule="evenodd" d="m0 18.8889c0-.2947.117063-.5773.325437-.7857s.490989-.3254.785673-.3254h22.22219c.2947 0 .5773.117.7857.3254s.3254.491.3254.7857-.117.5773-.3254.7857c-.2084.2083-.491.3254-.7857.3254h-22.22219c-.294684 0-.577299-.1171-.785673-.3254-.208374-.2084-.325437-.491-.325437-.7857zm0-8.8889c0-.29468.117063-.5773.325437-.78567.208374-.20838.490989-.32544.785673-.32544h22.22219c.2947 0 .5773.11706.7857.32544.2084.20837.3254.49099.3254.78567 0 .2947-.117.5773-.3254.7857-.2084.2083-.491.3254-.7857.3254h-22.22219c-.294684 0-.577299-.1171-.785673-.3254-.208374-.2084-.325437-.491-.325437-.7857zm0-8.88889c0-.294684.117063-.577299.325437-.785673s.490989-.325437.785673-.325437h22.22219c.2947 0 .5773.117063.7857.325437s.3254.490989.3254.785673c0 .29469-.117.5773-.3254.78568-.2084.20837-.491.32543-.7857.32543h-22.22219c-.294684 0-.577299-.11706-.785673-.32543-.208374-.20838-.325437-.49099-.325437-.78568z" fill="#000" fill-rule="evenodd"/></svg>