<svg width="42" height="42" viewBox="0 0 42 42" fill="none" xmlns="http://www.w3.org/2000/svg">
<mask id="mask0" mask-type="alpha" maskUnits="userSpaceOnUse" x="0" y="0" width="42" height="42">
<circle cx="21" cy="21" r="21" fill="#C4C4C4"/>
</mask>
<g mask="url(#mask0)">
<path d="M29.9138 34.2186C29.9138 34.2186 28.3392 32.5214 27.7093 31.7927C27.4212 31.4597 27.0595 31.398 26.7508 31.4267C26.7528 31.3786 26.7542 31.3372 26.7546 31.3122L26.8938 29.8116C26.976 29.7199 27.053 29.6216 27.1228 29.516C27.5078 28.9259 27.7478 28.1763 27.8386 27.2825C27.9036 27.2558 27.9682 27.2198 28.0311 27.1736C28.4176 26.8901 28.6053 26.3411 28.6053 25.4965C28.6053 24.3993 28.9168 23.6493 29.1444 23.1018C29.2228 22.9136 29.2901 22.7512 29.339 22.5935C29.4497 22.2344 29.6632 21.329 29.2482 20.6732C29.0873 20.4191 28.7689 20.1074 28.1656 20.0656C28.0837 20.0597 28.0053 20.0773 27.9338 20.1099C27.9005 19.6585 28.0239 18.6353 28.6465 16.3502C29.3558 13.7474 28.6747 11.5379 26.9725 10.5998C25.345 9.70272 24.1891 9.13574 21.5999 9.00922C17.6097 8.81412 17.5811 11.7799 17.5811 11.7799C16.0361 11.3798 14.9764 12.1224 14.4033 14.2616C13.9574 15.9262 14.6244 18.8502 14.9428 20.0667C14.9348 20.0667 14.9273 20.0652 14.9194 20.0659C14.3156 20.1077 13.9973 20.4195 13.8367 20.6736C13.4218 21.3293 13.6353 22.2348 13.7463 22.5938C13.7951 22.7515 13.8625 22.914 13.9409 23.1021C14.1685 23.6497 14.48 24.3996 14.48 25.4969C14.48 26.3419 14.6677 26.8905 15.0538 27.174C15.1167 27.2202 15.1814 27.2561 15.2463 27.2829C15.3371 28.1766 15.5774 28.9263 15.9639 29.5185C16.0498 29.6487 16.1495 29.7653 16.2544 29.8754L16.3881 31.3126C16.3885 31.3364 16.3895 31.3764 16.3916 31.423C16.0684 31.4068 15.5888 31.4802 15.3185 31.793C14.6883 32.5217 12.697 34.219 12.697 34.219L6 36.4201V42H20.5822C16.6645 37.3586 16.5136 33.2548 16.5253 32.448C16.6883 33.2259 17.0444 34.2542 17.8276 35.0955C18.4327 35.7453 19.1963 36.1762 20.1098 36.3944C19.9964 36.5103 19.9499 36.6831 19.9912 36.8452L20.2542 37.8731L19.7609 39.1061C20.2494 39.8814 20.8432 40.693 21.571 41.5262C22.2816 40.7124 22.8678 39.9155 23.3554 39.1516L22.8441 37.8731L23.1075 36.8452C23.148 36.6867 23.1037 36.5199 22.9968 36.404C23.9213 36.1894 24.7 35.7556 25.3147 35.0955C26.3633 33.9692 26.6476 32.5082 26.725 31.7622L26.736 32.3032C26.736 32.3032 26.9519 36.8166 22.5625 42H37V36.4084L29.9138 34.2186ZM25.7252 31.2293L25.7228 31.2855C25.7228 31.3038 25.7121 33.114 24.5759 34.3272C23.8707 35.0804 22.8641 35.4626 21.5576 35.4626C20.2776 35.4626 19.2713 35.0804 18.5658 34.3272C17.4298 33.114 17.4192 31.3038 17.4192 31.2873V31.258L17.3621 30.6462C17.6715 30.7915 17.9724 30.8956 18.2185 30.9723C18.5338 31.7255 19.2214 32.689 20.2515 32.5525L20.2869 32.5474C20.6159 32.5027 21.0659 32.441 21.5167 32.4645L21.5425 32.466L21.5682 32.4645C22.0179 32.4418 22.4694 32.5027 22.798 32.5474L22.8335 32.5525C22.9012 32.5613 22.9679 32.5661 23.0325 32.5661C23.9512 32.5657 24.5721 31.676 24.8664 30.9723C25.1284 30.8905 25.4519 30.7761 25.7826 30.6154L25.7252 31.2293ZM26.2774 28.8852C25.8435 29.542 24.8303 29.842 24.3431 29.9865L24.0835 30.065L23.9941 30.3352C23.99 30.3474 23.5768 31.5477 22.9638 31.4604L22.9287 31.4556C22.588 31.409 22.076 31.3397 21.5421 31.3639C21.0102 31.3401 20.4966 31.409 20.1555 31.4556L20.1208 31.4604C19.5168 31.5466 19.0942 30.3474 19.0908 30.3371L19.0024 30.0639L18.7415 29.9865C18.2543 29.842 17.2408 29.542 16.8086 28.8874C16.4699 28.3688 16.2795 27.6518 16.2427 26.7563L16.2114 25.9946L15.62 26.2351C15.5826 26.1622 15.5111 25.9619 15.5111 25.4965C15.5111 24.1664 15.1332 23.2573 14.8833 22.6558C14.8186 22.5003 14.7616 22.3661 14.7255 22.2484C14.6014 21.8475 14.5876 21.4529 14.6914 21.2883C14.7086 21.2611 14.7609 21.179 14.9861 21.1632C15.0538 21.1584 15.1174 21.1394 15.1752 21.1097L15.8535 21.0286C15.7686 20.0601 15.7765 19.6618 15.9425 19.2547C16.1877 18.6533 16.6518 18.1347 16.4249 16.6821C16.1096 14.6639 16.3747 13.5769 17.6942 13.2017C19.0506 12.8159 19.6316 13.4067 21.5648 13.4188H21.5768C23.5101 13.4067 24.0908 12.8159 25.4474 13.2017C26.7673 13.5769 27.032 14.6639 26.7167 16.6821C26.4898 18.1347 26.954 18.6533 27.1991 19.2547C27.3648 19.6618 27.3731 20.0601 27.2882 21.0286L27.8929 21.1009C27.9551 21.1357 28.0242 21.1581 28.0989 21.1632C28.3237 21.1786 28.3763 21.2611 28.3932 21.2883C28.497 21.4526 28.4832 21.8475 28.3588 22.2484C28.3227 22.3661 28.2656 22.5003 28.201 22.6558C27.9507 23.2573 27.5732 24.1664 27.5732 25.4965C27.5732 25.9619 27.5013 26.1618 27.4642 26.2351L26.8728 25.9946L26.8412 26.7563C26.8051 27.6515 26.6146 28.3684 26.2774 28.8852Z" fill="black"/>
</g>
</svg>
