<svg fill="none" height="81" viewBox="0 0 80 81" width="80" xmlns="http://www.w3.org/2000/svg"><g clip-rule="evenodd" fill="#fff" fill-rule="evenodd"><path d="m38.1917 57.2541c-.2328-.2342-.4175-.5124-.5435-.8187-.1261-.3064-.1909-.6348-.1909-.9664s.0648-.66.1909-.9664c.126-.3063.3107-.5845.5435-.8187l13.235-13.3431-13.235-13.3431c-.4694-.4734-.7331-1.1156-.7331-1.7851 0-.6696.2637-1.3117.7331-1.7851.4695-.4735 1.1062-.7395 1.77-.7395.6639 0 1.3006.266 1.77.7395l15 15.1282c.2329.2342.4176.5124.5436.8187.126.3064.1909.6347.1909.9664 0 .3316-.0649.66-.1909.9664-.126.3063-.3107.5845-.5436.8187l-15 15.1282c-.2322.2348-.5081.4211-.8118.5482s-.6293.1926-.9582.1926c-.3288 0-.6544-.0655-.9581-.1926-.3038-.1271-.5796-.3134-.8119-.5482z"/><path d="m22.5 40.3417c0-.6687.2634-1.3101.7322-1.7829.4689-.4729 1.1048-.7385 1.7678-.7385h25c.663 0 1.2989.2656 1.7678.7385.4688.4728.7322 1.1142.7322 1.7829s-.2634 1.31-.7322 1.7828c-.4689.4729-1.1048.7385-1.7678.7385h-25c-.663 0-1.2989-.2656-1.7678-.7385-.4688-.4728-.7322-1.1141-.7322-1.7828z"/></g></svg>