<svg fill="none" height="40" viewBox="0 0 40 40" width="40" xmlns="http://www.w3.org/2000/svg"><rect fill="#000" height="39" rx="4.5" stroke="#000" width="39" x=".5" y=".5"/><g fill="#f9f9fa"><path d="m16.067 14.3271c-.4182 0-.7555.3373-.7555.7555v5.801c0 .4182.3373.7555.7555.7555s.7555-.3373.7555-.7555v-5.801c0-.4182-.3373-.7555-.7555-.7555z"/><path d="m22.9074 14.3271c-.4182 0-.7554.3373-.7554.7555v3.4671l-2.7252-3.7504c-.1888-.2698-.5396-.3777-.8499-.2698s-.5261.3912-.5261.715v5.6391c0 .4182.3373.7555.7555.7555s.7554-.3373.7554-.7555v-3.3052l2.7252 3.7504c.1484.2024.3777.3103.6071.3103.0809 0 .1618-.0135.2293-.0405.3103-.1079.5261-.3912.5261-.715v-5.801c.0135-.4182-.3237-.7555-.742-.7555z"/><path d="m13.9498 20.1417h-2.0101v-5.0455c0-.4182-.3373-.7555-.7555-.7555s-.7555.3373-.7555.7555v5.801c0 .4182.3373.7555.7555.7555h2.7656c.4182 0 .7555-.3373.7555-.7555s-.3508-.7555-.7555-.7555z"/><path d="m35.8044 0h-31.62228c-2.30691 0-4.18212 1.87521-4.18212 4.18212v31.62228c0 2.3069 1.87521 4.1956 4.18212 4.1956h31.62228c2.3069 0 4.1956-1.8752 4.1956-4.1956v-31.62228c-.0135-2.30691-1.8887-4.18212-4.1956-4.18212zm-2.5498 25.8752c-2.064 2.5632-11.1163 8.715-13.2344 9.9697-.8634.5126-1.9561-.108-1.9561-1.1198v-3.1298c-5.059-.2024-14.11132-4.6813-14.11132-13.3963 0-9.07927 9.07922-13.49074 16.01352-13.49074 7.5008 0 16.0404 4.97808 16.0404 13.40974.0135 2.3744-.6745 5.1805-2.7521 7.7572z"/><path d="m29.1807 20.0067h-2.9949v-1.3895h2.3339c.4182 0 .7554-.3373.7554-.7555s-.3372-.7555-.7554-.7555h-2.3339v-1.3895h2.8735c.4182 0 .7555-.3373.7555-.7555s-.3373-.7555-.7555-.7555h-3.629c-.4182 0-.7555.3373-.7555.7555v2.9005 2.9005c0 .4182.3373.7555.7555.7555h3.7504c.4182 0 .7555-.3373.7555-.7555s-.3373-.7555-.7555-.7555z"/></g></svg>