<svg fill="none" height="25" viewBox="0 0 24 25" width="24" xmlns="http://www.w3.org/2000/svg"><path clip-rule="evenodd" d="m0 2.75c0-.59674.237053-1.16903.65901-1.59099.42196-.421957.99425-.65901 1.59099-.65901h19.5c.5967 0 1.169.237053 1.591.65901.4219.42196.659.99425.659 1.59099v19.5c0 .5967-.2371 1.169-.659 1.591-.422.4219-.9943.659-1.591.659h-19.5c-.59674 0-1.16903-.2371-1.59099-.659-.421957-.422-.65901-.9943-.65901-1.591zm2.25-.75c-.19891 0-.38968.07902-.53033.21967s-.21967.33142-.21967.53033v5.25h6v-6zm5.25 7.5h-6v6h6zm1.5 6v-6h6v6zm-1.5 1.5h-6v5.25c0 .1989.07902.3897.21967.5303.14065.1407.33142.2197.53033.2197h5.25zm1.5 0h6v6h-6zm7.5 0v6h5.25c.1989 0 .3897-.079.5303-.2197.1407-.1406.2197-.3314.2197-.5303v-5.25zm0-1.5h6v-6h-6zm0-7.5h6v-5.25c0-.19891-.079-.38968-.2197-.53033-.1406-.14065-.3314-.21967-.5303-.21967h-5.25zm-1.5 0h-6v-6h6z" fill="#f9f9fa" fill-rule="evenodd"/></svg>