<svg fill="none" height="30" viewBox="0 0 30 30" width="30" xmlns="http://www.w3.org/2000/svg"><g fill="#000"><path clip-rule="evenodd" d="m3.75 6.5625c0-.24864.09877-.4871.27459-.66291.17581-.17582.41427-.27459.66291-.27459h20.625c.2486 0 .4871.09877.6629.27459.1758.17581.2746.41427.2746.66291s-.0988.4871-.2746.66291c-.1758.17582-.4143.27459-.6629.27459h-20.625c-.24864 0-.4871-.09877-.66291-.27459-.17582-.17581-.27459-.41427-.27459-.66291zm0 5.625c0-.2486.09877-.4871.27459-.6629.17581-.1758.41427-.2746.66291-.2746h11.25c.2486 0 .4871.0988.6629.2746s.2746.4143.2746.6629-.0988.4871-.2746.6629-.4143.2746-.6629.2746h-11.25c-.24864 0-.4871-.0988-.66291-.2746-.17582-.1758-.27459-.4143-.27459-.6629zm0 5.625c0-.2486.09877-.4871.27459-.6629.17581-.1758.41427-.2746.66291-.2746h11.25c.2486 0 .4871.0988.6629.2746s.2746.4143.2746.6629-.0988.4871-.2746.6629-.4143.2746-.6629.2746h-11.25c-.24864 0-.4871-.0988-.66291-.2746-.17582-.1758-.27459-.4143-.27459-.6629zm0 5.625c0-.2486.09877-.4871.27459-.6629.17581-.1758.41427-.2746.66291-.2746h20.625c.2486 0 .4871.0988.6629.2746s.2746.4143.2746.6629-.0988.4871-.2746.6629-.4143.2746-.6629.2746h-20.625c-.24864 0-.4871-.0988-.66291-.2746-.17582-.1758-.27459-.4143-.27459-.6629z" fill-rule="evenodd"/><path d="m22.815 11.91c.345.1969.6225.3694.8344.5156.2137.1388.4293.3263.6487.5607.2063.2193.3619.4499.4725.6918s.1875.5532.2306.9338h-.5268c-.4556 0-.81.1125-1.0669.3412-.2625.2194-.3938.5438-.3938.9769 0 .3075.1163.5962.3507.8681.2269.2625.5418.3938.945.3938.63 0 1.08-.2025 1.35-.6132.2719-.4181.4068-.9637.4068-1.6368 0-.4763-.1012-.9094-.3075-1.2975-.1975-.3848-.4488-.7396-.7462-1.0538-.3-.315-.6188-.5812-.9563-.8025-.3375-.2193-.6187-.3994-.8456-.5381zm-4.065 0c.345.1969.6225.3694.8344.5156.2137.1388.4294.3263.6487.5607.2119.2249.375.4612.4838.7031.1031.2343.1762.5419.2194.9225h-.5269c-.4538 0-.81.1125-1.0669.3412-.2625.2194-.3938.5438-.3938.9769 0 .3075.1163.5962.3507.8681.2269.2625.5418.3938.945.3938.63 0 1.08-.2025 1.35-.6132.2719-.4181.4069-.9637.4069-1.6368 0-.4763-.1013-.9094-.3076-1.2975-.1976-.3848-.4488-.7396-.7462-1.0538-.3-.315-.6188-.5812-.9563-.8025-.3375-.2193-.6187-.3994-.8456-.5381z"/></g></svg>