<svg fill="none" height="11" viewBox="0 0 19 11" width="19" xmlns="http://www.w3.org/2000/svg"><path clip-rule="evenodd" d="m.5 10.25c0-.1989.079018-.38968.21967-.53033s.33142-.21967.53033-.21967h4.5c.19891 0 .38968.07902.53033.21967s.21967.33143.21967.53033-.07902.3897-.21967.5303c-.14065.1407-.33142.2197-.53033.2197h-4.5c-.19891 0-.389678-.079-.53033-.2197-.140652-.1406-.21967-.3314-.21967-.5303zm0-4.5c0-.19891.079018-.38968.21967-.53033s.33142-.21967.53033-.21967h10.5c.1989 0 .3897.07902.5303.21967.1407.14065.2197.33142.2197.53033s-.079.38968-.2197.53033c-.1406.14065-.3314.21967-.5303.21967h-10.5c-.19891 0-.389678-.07902-.53033-.21967s-.21967-.33142-.21967-.53033zm0-4.5c0-.19891.079018-.389678.21967-.53033s.33142-.21967.53033-.21967h16.5c.1989 0 .3897.079018.5303.21967.1407.140652.2197.33142.2197.53033s-.079.38968-.2197.53033c-.1406.14065-.3314.21967-.5303.21967h-16.5c-.19891 0-.389678-.07902-.53033-.21967s-.21967-.33142-.21967-.53033z" fill="#000" fill-rule="evenodd"/></svg>