<svg fill="none" height="26" viewBox="0 0 26 26" width="26" xmlns="http://www.w3.org/2000/svg"><path d="m23 13c0-2.6522-1.0536-5.1957-2.9289-7.07107-1.8754-1.87536-4.4189-2.92893-7.0711-2.92893s-5.1957 1.05357-7.07107 2.92893c-1.87536 1.87537-2.92893 4.41887-2.92893 7.07107s1.05357 5.1957 2.92893 7.0711c1.87537 1.8753 4.41887 2.9289 7.07107 2.9289s5.1957-1.0536 7.0711-2.9289c1.8753-1.8754 2.9289-4.4189 2.9289-7.0711zm2.5 0c0 3.3152-1.317 6.4946-3.6612 8.8388s-5.5236 3.6612-8.8388 3.6612c-1.6415 0-3.26697-.3233-4.78354-.9515s-2.89456-1.5489-4.05529-2.7097c-2.34421-2.3442-3.66117-5.5236-3.66117-8.8388 0-3.31521 1.31696-6.49463 3.66117-8.83883 2.3442-2.34421 5.52362-3.66117 8.83883-3.66117 1.6415 0 3.267.323322 4.7835.95151 1.5166.62818 2.8946 1.54892 4.0553 2.70966 1.1608 1.16073 2.0815 2.53872 2.7097 4.05529s.9515 3.14204.9515 4.78354zm-15-3.125c0 1-.875 1.875-1.875 1.875s-1.875-.875-1.875-1.875.875-1.875 1.875-1.875 1.875.875 1.875 1.875zm8.75 0c0 1-.875 1.875-1.875 1.875s-1.875-.875-1.875-1.875.875-1.875 1.875-1.875 1.875.875 1.875 1.875zm-6.25 9.6625c-2.1875 0-4.1125-.9125-5.2375-2.2625l1.775-1.775c.5625.9 1.9 1.5375 3.4625 1.5375s2.9-.6375 3.4625-1.5375l1.775 1.775c-1.125 1.35-3.05 2.2625-5.2375 2.2625z" fill="#fff"/></svg>