<svg fill="none" height="16" viewBox="0 0 19 16" width="19" xmlns="http://www.w3.org/2000/svg"><path d="m17.1998 4.32498v.44999c0 4.875-3.75 10.57503-10.575 10.57503-2.1 0-4.05-.6-5.699995-1.65.299995 0 .599995.075.899995.075 1.725 0 3.3-.6 4.575-1.575-1.65 0-3-1.125-3.45-2.55002.225.075.45.07499.675.07499.375 0 .675-.075.975-.14999-1.725-.375-3-1.87501-3-3.60001 0 0 0 .00001 0-.07499.525.3 1.05.44999 1.65.44999-.9-.75-1.5-1.87499-1.5-3.14999 0-.675.15-1.35.525-1.875 1.8 2.25 4.575 3.74999 7.65 3.89999-.075-.3-.075-.52499-.075-.82499 0-2.025 1.65-3.675004 3.675-3.675004 1.05 0 2.025.450004 2.7 1.200004.825-.15 1.65-.45 2.325-.9-.3.9-.9 1.57499-1.65 2.02499.75-.075 1.5-.29999 2.1-.59999-.45.675-1.125 1.35-1.8 1.875z" fill="#000"/></svg>