<svg fill="none" height="40" viewBox="0 0 40 40" width="40" xmlns="http://www.w3.org/2000/svg"><path clip-rule="evenodd" d="m40 20c0 11.0465-8.9535 20-20 20-11.04651 0-20-8.9535-20-20 0-11.04651 8.95349-20 20-20 11.0465 0 20 8.95349 20 20z" fill="#f9f9fa" fill-rule="evenodd"/><path d="m32 13.1268c-.8506.3655-1.7586.6092-2.7126.72.977-.565 1.7241-1.4511 2.0689-2.5145-.908.5206-1.9195.8972-3 1.1077-.862-.8862-2.0804-1.44-3.4368-1.44-2.6092 0-4.7126 2.0382-4.7126 4.5415 0 .3545.046.6979.1264 1.0413-3.9195-.1883-7.3908-1.9939-9.7241-4.752-.4023.6757-.64368 1.451-.64368 2.2818 0 1.5729.82758 2.9686 2.10348 3.7883-.7701-.0221-1.5058-.2326-2.13797-.5649v.0554c0 2.2043 1.62067 4.0431 3.78157 4.4529-.3908.0997-.816.1551-1.2413.1551-.2989 0-.5977-.0332-.8851-.0776.5977 1.8056 2.3448 3.1237 4.4023 3.157-1.6092 1.2184-3.6437 1.9495-5.8621 1.9495-.37927 0-.75858-.0221-1.1264-.0665 2.1034 1.285 4.5747 2.0382 7.2414 2.0382 8.6781 0 13.4138-6.9231 13.4138-12.9268 0-.1994 0-.3877-.0115-.587.9195-.6425 1.7241-1.4511 2.3563-2.3594z" fill="#000"/></svg>